<?xml version="1.0" encoding="UTF-8"?>
<!DOCTYPE svg PUBLIC "-//W3C//DTD SVG 1.1//EN" "http://www.w3.org/Graphics/SVG/1.1/DTD/svg11.dtd">
<svg xmlns="http://www.w3.org/2000/svg" version="1.1" width="625px" height="313px" style="shape-rendering:geometricPrecision; text-rendering:geometricPrecision; image-rendering:optimizeQuality; fill-rule:evenodd; clip-rule:evenodd" xmlns:xlink="http://www.w3.org/1999/xlink">
<g><path style="opacity:0.973" fill="#fe1817" d="M 73.5,72.5 C 97.058,69.9704 118.391,75.4704 137.5,89C 153.18,102.534 160.514,119.701 159.5,140.5C 145.167,140.5 130.833,140.5 116.5,140.5C 115.402,121.094 105.069,112.094 85.5,113.5C 76.0782,112.476 68.2449,115.476 62,122.5C 58.8218,129.942 60.6552,135.775 67.5,140C 82.4834,145.264 97.8167,149.264 113.5,152C 154.181,160.365 168.681,184.531 157,224.5C 147.031,243.456 131.531,255.29 110.5,260C 85.556,265.08 61.556,262.414 38.5,252C 22.4215,242.37 12.9215,228.203 10,209.5C 9.03677,203.535 8.53677,197.535 8.5,191.5C 22.8333,191.5 37.1667,191.5 51.5,191.5C 51.4347,205.242 57.768,214.409 70.5,219C 83.821,223.184 96.4877,221.851 108.5,215C 113.523,210.318 114.689,204.818 112,198.5C 110.062,195.894 107.562,194.061 104.5,193C 90.6355,189.16 76.6355,185.827 62.5,183C 46.0279,179.684 32.1945,171.851 21,159.5C 10.8372,141.744 9.83723,123.41 18,104.5C 26.8096,89.7066 39.6429,80.2066 56.5,76C 62.2288,74.4321 67.8955,73.2654 73.5,72.5 Z"/></g>
<g><path style="opacity:0.971" fill="#fe1817" d="M 183.5,77.5 C 222.5,77.5 261.5,77.5 300.5,77.5C 300.5,92.8333 300.5,108.167 300.5,123.5C 284.5,123.5 268.5,123.5 252.5,123.5C 252.5,152.833 252.5,182.167 252.5,211.5C 268.5,211.5 284.5,211.5 300.5,211.5C 300.5,226.833 300.5,242.167 300.5,257.5C 261.5,257.5 222.5,257.5 183.5,257.5C 183.5,242.167 183.5,226.833 183.5,211.5C 199.833,211.5 216.167,211.5 232.5,211.5C 232.5,182.167 232.5,152.833 232.5,123.5C 216.167,123.5 199.833,123.5 183.5,123.5C 183.5,108.167 183.5,92.8333 183.5,77.5 Z"/></g>
<g><path style="opacity:0.967" fill="#fe1817" d="M 320.5,77.5 C 371.838,77.1667 423.171,77.5001 474.5,78.5C 452.581,111.34 430.414,144.006 408,176.5C 407.5,204.831 407.333,233.165 407.5,261.5C 400.833,261.5 394.167,261.5 387.5,261.5C 387.667,233.165 387.5,204.831 387,176.5C 364.586,143.601 342.419,110.601 320.5,77.5 Z"/></g>
<g><path style="opacity:0.974" fill="#fe1817" d="M 528.5,78.5 C 530.686,79.8233 532.186,81.8233 533,84.5C 560.791,143.746 588.291,203.079 615.5,262.5C 558.167,262.5 500.833,262.5 443.5,262.5C 471.827,201.178 500.161,139.844 528.5,78.5 Z"/></g>
</svg>
