<?xml version="1.0" encoding="utf-8" ?>
<svg xmlns="http://www.w3.org/2000/svg" xmlns:xlink="http://www.w3.org/1999/xlink" width="1024" height="1024">
	<path fill="#FEFEFE" d="M0 0L1024 0L1024 1024L0 1024L0 0Z"/>
	<path fill="#010101" d="M345.489 335.355L347.483 335.427L348.223 336.378C347.427 356.064 348.125 376.082 348.134 395.799L348.031 501.315C356.511 503.502 365.18 505.074 373.714 507.06C385.826 509.878 397.764 513.282 409.75 516.58C418.13 518.886 426.695 520.95 434.923 523.733Q417.896 578.913 402.618 634.602C397.153 653.909 389.647 676.498 386.073 695.863C376.808 694.044 367.513 690.954 358.43 688.358Q338.788 682.723 318.892 678.064C320.435 696.771 323.175 715.623 325.782 734.213C330.811 734.196 347.573 732.842 350.653 735.466L350.476 736.365C347.718 738.243 330.737 737.354 326.325 737.389C326.681 744.35 327.734 751.373 328.503 758.302Q330.646 777.793 333.038 797.255C338.351 840.957 344.422 884.628 349.271 928.374C357.195 930.773 363.425 934.261 369.19 940.293C378.08 949.597 380.713 959.881 380.385 972.467C354.822 973.203 329.02 972.926 303.448 972.479C304.123 961.132 305.265 949.787 306.378 938.477C307.019 931.959 308.437 924.548 307.706 918.019C306.848 910.356 303.66 902.443 301.518 895.005Q294.668 871.1 287.548 847.273L268.624 784.731C264.311 770.068 260.608 754.926 255.368 740.578C254.996 756.15 253.956 771.741 253.226 787.301L249.853 864.666L248.45 898.169C248.116 905.213 247.26 912.463 247.878 919.493C248.174 922.855 249.112 926.129 249.972 929.382C256.221 933.113 262.117 937.426 267.152 942.709C275.564 951.535 278.151 960.18 277.824 972.209C269.275 973.136 259.996 972.472 251.373 972.476L201.208 972.544C202.342 954.155 207.442 935.891 207.466 917.438C207.485 902.407 205.075 884.006 203.873 868.784L196.842 782.87C195.684 769.173 194.14 755.493 193.277 741.774C188.72 740.341 184.062 738.578 179.332 737.842C172.589 736.792 165.211 737.374 158.375 737.389C125.952 737.459 100.167 738.982 74.5838 714.888C57.9577 699.23 47.2406 676.353 46.7132 653.472C45.7959 613.682 46.6239 573.664 46.6239 533.851L46.5683 498.757C46.5336 489.115 45.8659 478.948 47.7635 469.459C50.206 457.245 56.7674 445.401 65.3823 436.461Q66.4113 435.399 67.4884 434.386Q68.5655 433.373 69.6884 432.412Q70.8113 431.45 71.9776 430.541Q73.1439 429.632 74.3511 428.778Q75.5583 427.925 76.8037 427.128Q78.0492 426.331 79.3303 425.593Q80.6113 424.855 81.9253 424.177Q83.2392 423.499 84.5831 422.882Q85.9271 422.266 87.2982 421.712Q88.6692 421.159 90.0645 420.67Q91.4598 420.181 92.8762 419.757Q94.2927 419.333 95.7273 418.975Q97.1619 418.617 98.6115 418.326Q100.061 418.035 101.523 417.811Q102.984 417.588 104.455 417.433Q105.925 417.277 107.401 417.19C116.21 416.668 125.107 417.39 133.932 417.164C145.568 416.865 155.72 411.733 158.111 399.409C159.168 393.963 158.97 388.43 160.384 382.992C162.482 374.929 166.87 367.522 172.614 361.518Q173.524 360.577 174.479 359.681Q175.434 358.786 176.432 357.939Q177.429 357.092 178.468 356.295Q179.506 355.498 180.583 354.753Q181.659 354.008 182.771 353.317Q183.883 352.626 185.027 351.99Q186.171 351.355 187.346 350.777Q188.52 350.198 189.722 349.678Q190.923 349.159 192.149 348.699Q193.374 348.239 194.621 347.84Q195.868 347.441 197.132 347.103Q198.397 346.766 199.677 346.492Q200.957 346.217 202.249 346.006Q203.541 345.795 204.842 345.648Q206.142 345.501 207.449 345.418Q208.755 345.335 210.064 345.316C224.315 345.02 238.113 350.032 248.421 359.953C267.651 378.463 263.396 399.876 263.749 423.968C268.906 428.458 273.568 433.848 275.286 440.631C276.945 447.176 275.153 451.906 271.821 457.413C273.207 461.619 274.797 465.927 275.434 470.327C276.634 478.613 273.495 485.195 268.665 491.567C290.872 491.753 323.077 496.476 344.981 500.782C345.716 479.983 345.458 459.1 345.483 438.288L345.489 335.355Z"/>
	<path fill="#FEFEFE" d="M172.555 734.487C154.443 734.299 131.798 736.289 114.34 732.477C92.7102 727.754 74.6444 714.341 62.8282 695.717C56.1058 685.122 52.0167 673.734 50.2799 661.313C48.8534 651.111 49.5289 640.217 49.5347 629.913L49.5767 577.069L49.5654 512.606C49.5645 498.415 48.1348 481.746 51.2569 467.979C53.5811 457.731 59.0754 448.075 66.0872 440.303Q67.9968 438.214 70.0878 436.307Q72.1789 434.4 74.4341 432.691Q76.6893 430.981 79.0901 429.483Q81.491 427.985 84.0177 426.71C89.8801 423.73 96.2875 421.436 102.829 420.576C117.255 418.68 138.013 423.73 150.335 415.725C163.236 407.344 160.183 397.958 162.849 385.298C165.333 373.506 174.028 362.424 184.069 356.024C195.37 348.821 209.75 346.647 222.776 349.562Q223.967 349.823 225.143 350.142Q226.319 350.462 227.479 350.839Q228.638 351.216 229.777 351.65Q230.916 352.084 232.032 352.574Q233.148 353.064 234.238 353.609Q235.329 354.154 236.391 354.752Q237.453 355.35 238.485 355.999Q239.516 356.649 240.514 357.349Q241.512 358.049 242.474 358.798Q243.436 359.547 244.359 360.342Q245.283 361.137 246.166 361.978Q247.049 362.818 247.89 363.7Q248.731 364.583 249.526 365.507Q250.322 366.43 251.071 367.392Q251.82 368.353 252.521 369.351Q253.222 370.348 253.872 371.379C261.553 383.781 260.562 395.28 260.528 409.253C260.517 413.562 261.301 418.42 260.325 422.601L259.542 422.219C257.968 423.192 256.908 425.856 256.005 427.467C247.351 422.971 238.633 420.533 228.883 422.715Q228.065 422.904 227.258 423.133Q226.45 423.361 225.655 423.629Q224.859 423.898 224.078 424.204Q223.297 424.511 222.532 424.856Q221.766 425.2 221.019 425.582Q220.271 425.964 219.543 426.382Q218.816 426.8 218.109 427.253Q217.403 427.706 216.719 428.193Q216.036 428.681 215.377 429.201Q214.718 429.721 214.086 430.273Q213.454 430.825 212.849 431.407Q212.244 431.989 211.669 432.6Q211.094 433.211 210.549 433.85Q210.005 434.489 209.492 435.153Q208.979 435.818 208.5 436.507Q208.02 437.195 207.575 437.907C202.521 445.914 201.181 455.762 203.286 464.945C206.056 477.031 214.41 485.194 224.607 491.539Q202.175 490.715 179.73 491.074C179.271 496.926 178.54 537.797 180.221 540.692L181.401 540.998L182.197 540.441C182.982 534.776 182.469 528.8 182.444 523.087L182.519 493.984C189.534 494.005 234.446 495.224 236.558 494.48C240.465 493.105 246.775 490.189 248.729 486.422L248.443 485.833C245.93 486.019 244.015 485.868 241.847 484.473Q241.436 484.206 241.055 483.897Q240.674 483.588 240.328 483.242Q239.981 482.895 239.673 482.514Q239.365 482.133 239.098 481.722Q238.831 481.311 238.608 480.874Q238.386 480.437 238.21 479.98Q238.034 479.522 237.907 479.049Q237.78 478.575 237.703 478.091C237.429 476.412 237.578 473.797 238.815 472.473C239.66 471.569 240.74 470.924 242.023 471.006C245.245 471.212 247.158 473.888 249.138 476.094C250.671 473.444 252.053 470.299 252.485 467.234C252.71 465.643 252.328 466.998 252.775 465.535C252.845 465.307 252.923 465.08 252.997 464.853C258.69 463.501 263.909 462.04 269.182 459.465C271.456 465.074 273.352 470.854 272.48 476.998C270.391 491.708 261.419 491.588 252.783 498.24L252.996 498.837C258.997 499.357 264.091 494.51 270.255 494.532C290.335 494.606 313.15 498.527 332.999 501.899C334.609 502.202 336.216 502.541 337.845 502.72C357.897 506.42 378.119 510.368 397.691 516.124C398.938 516.416 400.155 516.68 401.339 517.183C411.125 520.201 421.115 522.778 430.976 525.555L418.363 568.078C417.494 565.68 416.708 563.19 415.017 561.225C412.31 558.081 408.877 556.566 404.756 556.344C401.25 556.155 397.21 556.707 393.94 558.01C387.225 560.685 380.982 565.884 374.942 569.854C368.701 573.957 361.952 577.334 355.817 581.559C346.335 588.089 337.224 595.992 328.485 603.486C326.516 596.835 325.165 589.97 323.433 583.249L311.263 536.547C308.044 524.457 302.789 514.718 291.631 508.385C286.583 505.519 280.922 503.644 275.254 502.464C262.966 499.908 230.356 498.03 218.63 501.329C210.706 503.558 203.219 507.658 198.617 514.69C190.34 527.336 195.916 539.666 190.957 550.29C187.086 558.582 180.453 568.732 175.691 576.724C165.018 594.635 154.05 612.431 143.836 630.608C133.431 649.122 130.385 668.652 136.229 689.266C142.026 709.714 154.178 724.233 172.555 734.487Z"/>
	<path fill="#FEFEFE" d="M337.845 502.72C357.897 506.42 378.119 510.368 397.691 516.124C395.532 520.82 393.314 525.681 390.279 529.882C378.98 533.997 366.501 537.087 354.751 539.73C352.253 533.944 349.784 528.117 346.902 522.509C343.981 516.826 338.928 509.445 337.23 503.495L337.845 502.72Z"/>
	<path fill="#ED3434" d="M332.999 501.899C334.609 502.202 336.216 502.541 337.845 502.72L337.23 503.495C338.928 509.445 343.981 516.826 346.902 522.509C349.784 528.117 352.253 533.944 354.751 539.73C366.501 537.087 378.98 533.997 390.279 529.882C393.314 525.681 395.532 520.82 397.691 516.124C398.938 516.416 400.155 516.68 401.339 517.183C399.183 518.167 394.182 530.355 392.944 533.015C396.265 538.642 400.939 543.967 403.673 549.874C404.321 551.272 404.694 552.305 404.121 553.757L403.42 553.627C398.038 548.335 394.03 539.678 390.152 533.123C377.941 535.994 365.838 539.773 353.766 543.191C346.583 529.575 340.11 515.564 332.999 501.899Z"/>
	<path fill="#ED3434" d="M350.243 547.371C350.472 547.738 350.604 548.303 350.746 548.716C350.327 551.289 340.901 571.594 339.07 573.858C338.334 573.114 338.017 572.913 337.984 571.788C337.865 567.773 347.4 550.27 350.243 547.371Z"/>
	<path fill="#5C6FB5" d="M273.265 505.355C273.37 505.341 273.474 505.312 273.58 505.314C284.045 505.525 296.473 513.584 302.098 522.156C308.672 532.175 310.984 549.053 314.059 560.735L326.492 607.949C327.279 610.904 328.446 619.085 330.529 621.04C331.007 621.488 331.696 621.224 332.299 621.177L332.927 620.413C331.293 615.78 330.353 610.771 329.049 606.023C340.302 598.008 351.885 586.101 364.048 580.165C367.913 580.516 370.555 581.006 373.732 583.426C377.735 586.476 381.068 591.497 381.669 596.563C381.902 598.528 381.829 601.063 380.534 602.661C374.004 610.721 365.355 617.433 357.868 624.612C350.084 632.076 342.723 640.187 334.682 647.334C332.915 648.905 330.887 650.844 328.596 651.554C328.373 651.623 328.146 651.68 327.922 651.745C322.297 653.398 316.66 653.835 311.325 650.881C308.288 649.199 306.407 646.825 304.904 643.73C301.491 636.707 299.92 628.118 297.751 620.615L281.283 561.676C280.48 561.533 280.027 561.748 279.26 561.975C278.448 563.353 278.894 564.485 279.242 566.013C282.947 582.289 288.415 598.265 292.924 614.334C295.476 623.429 297.642 636.879 301.8 645.052C304.224 649.817 307.769 652.283 312.134 655.038C313.543 662.079 314.582 669.192 315.693 676.285C273.339 677.117 230.834 676.479 188.466 676.371C188.303 663.923 189.953 651.172 190.655 638.718L193.571 577.139C197.279 573.19 201.669 569.643 205.686 566.001L228.068 545.632C242.192 532.7 257.882 516.122 273.265 505.355Z"/>
	<path fill="#ED3434" d="M239.632 679.144C247.706 679.422 255.91 679.061 263.996 679.033L315.853 678.99L335.649 844.018C338.554 867.302 341.03 890.82 344.595 914.002C333.206 914.291 321.741 914.024 310.345 914.011C307.498 907.49 305.868 900.059 303.946 893.205Q298.529 873.185 292.686 853.285L270.706 781.689Q255.824 730.218 239.632 679.144Z"/>
	<path fill="#ED3434" d="M189.816 678.997Q213.299 678.932 236.78 679.185C240.254 690.939 244.1 702.607 247.74 714.312C249.483 719.913 251.748 725.76 252.69 731.544C253.45 736.211 252.474 741.996 252.241 746.777L250.552 780.366L247.52 855C246.797 872.281 245.685 889.561 245.446 906.858L244.963 914.448L210.555 914.241C208.703 898.062 208.029 881.723 206.757 865.491L200.208 787.414Q196.907 749.287 193.176 711.199C192.111 700.462 190.715 689.748 189.816 678.997Z"/>
	<path fill="#FEFEFE" d="M315.801 655.898C323.202 656.862 329.061 655.351 335.075 650.819C340.802 646.503 345.877 640.377 350.975 635.311C359.239 627.096 367.981 619.458 376.474 611.497C379.673 608.499 382.512 604.957 385.822 602.113C395.628 593.685 408.129 589.968 415.553 578.597C408.692 604.02 400.901 629.216 393.759 654.564L387.399 677.83C386.25 682.066 385.348 686.977 383.482 690.932C381.989 691.01 380.514 690.749 379.038 690.557C370.781 689.593 361.981 686.104 353.93 683.849Q336.398 679.118 318.741 674.877Q316.868 665.45 315.801 655.898Z"/>
	<path fill="#ED3434" d="M363.364 657.157C368.17 650.227 374.657 635.818 380.596 631.007L381.253 631.192C380.31 638.428 370.167 652.344 365.71 658.825C368.105 662.862 370.489 666.897 372.636 671.073C375.855 677.334 378.673 685.844 383.482 690.932C381.989 691.01 380.514 690.749 379.038 690.557C374.464 680.43 369.38 669.76 363.529 660.32C356.164 662.061 325.981 668.684 320.458 667.596L319.772 666.976C320.366 666.073 320.807 665.658 321.868 665.399C324.332 664.798 327.02 664.689 329.53 664.214C340.648 662.114 352.54 660.378 363.364 657.157Z"/>
	<path fill="#FEFEFE" d="M320.447 931.25C327.984 931.175 335.555 930.968 343.09 931.109C352.735 931.289 360.287 935.079 366.874 942.001C374.325 949.832 377.689 958.822 377.456 969.57C372.901 969.823 368.312 969.761 363.75 969.8C344.685 969.831 325.475 970.358 306.428 969.647Q307.932 950.502 309.883 931.397L320.447 931.25Z"/>
	<path fill="#FEFEFE" d="M234.49 931.242C247.795 931.012 251.311 931.867 261.294 941.104C270.007 949.166 274.642 957.547 275.099 969.489Q260.718 969.649 246.336 969.612L204.27 969.588C206.48 956.969 207.768 944.094 209.668 931.41L234.49 931.242Z"/>
	<path fill="#5C6FB5" d="M227.764 502.681C237.695 501.723 248.513 502.972 258.432 503.612C252.664 510.767 244.56 516.607 237.664 522.708Q224.291 534.736 211.192 547.06Q202.738 554.903 194.459 562.931C194.341 553.616 194.925 533.748 197.391 525.23C198.506 521.378 200.237 517.848 202.727 514.704C208.963 506.829 218.141 503.801 227.764 502.681Z"/>
	<path fill="#FEFEFE" d="M400.255 559.624C402.888 559.372 405.663 559.232 408.166 560.226C410.918 561.318 413.556 563.536 414.671 566.331C415.821 569.211 415.055 572.395 413.785 575.091C412.5 577.82 410.653 580.327 408.517 582.452C404.387 586.561 390.658 596.368 385.371 598.341C384.501 595.209 383.726 591.925 382.277 589.001C379.195 582.786 374.477 579.831 368.1 577.732C377.449 572.082 389.787 561.276 400.255 559.624Z"/>
	<path fill="#FEFEFE" d="M211.892 917.25C222.654 916.848 233.559 917.187 244.322 917.441C244.724 920.944 246.11 924.383 246.229 927.899L245.421 928.327L210.305 928.487C210.353 924.99 210.12 921.18 210.834 917.763L211.892 917.25Z"/>
	<path fill="#FEFEFE" d="M311.591 917.46Q328.247 917.331 344.903 917.504C345.434 921.117 345.659 924.693 345.752 928.34C333.971 928.581 322.157 928.432 310.372 928.512L311.591 917.46Z"/>
	<path fill="#3E4C6F" d="M528.321 221.849C528.458 211.031 526.15 197.407 534.69 189.16C538.741 185.249 544.977 183.357 550.533 183.615C556.401 183.887 562.046 186.74 565.927 191.111C568.38 193.872 570.128 197.119 570.892 200.743C572.505 208.389 571.534 217.672 571.525 225.481L571.464 265.119C571.456 272.773 571.203 280.556 571.634 288.196C573.376 300.989 572.335 315.105 572.36 328.041L572.509 401.148C579.215 401.069 585.923 400.936 592.629 401.108L596.256 401.397C604.021 418.481 616.072 432.899 634.037 439.688C649.401 445.494 661.605 442.966 677.158 444.222C696.286 445.768 714.139 456.885 722.283 474.527C727.634 486.117 728.822 501.515 724.379 513.585C719.637 526.467 708.927 537.285 696.479 542.883Q694.472 543.78 692.4 544.518Q690.329 545.255 688.206 545.828Q686.083 546.4 683.922 546.805Q681.761 547.21 679.575 547.444C666.488 548.923 652.538 548.009 639.34 547.974L572.577 548.007C572.993 569.078 572.493 590.217 572.48 611.297L572.514 735.589C572.51 743.362 571.458 785.599 573.037 789.895C572.516 791.282 572.496 792.083 572.578 793.523L572.572 972.969C557.781 972.455 542.874 972.747 528.07 972.821L398.314 972.622C397.71 946.855 400.986 923.394 417.171 902.313Q418.327 900.834 419.542 899.404Q420.757 897.974 422.03 896.595Q423.302 895.215 424.63 893.889Q425.958 892.563 427.34 891.293Q428.721 890.022 430.153 888.809Q431.585 887.596 433.066 886.443Q434.546 885.29 436.073 884.198Q437.599 883.106 439.169 882.078Q440.739 881.049 442.35 880.086Q443.961 879.123 445.609 878.227Q447.258 877.33 448.942 876.502Q450.626 875.674 452.343 874.915Q454.059 874.156 455.806 873.469Q457.552 872.781 459.325 872.165Q461.098 871.55 462.894 871.007Q464.691 870.464 466.508 869.996C472.61 868.438 478.836 867.711 485.07 866.911C499.319 845.616 508.34 834.832 528.209 818.878C529.293 813.65 528.445 804.191 528.433 798.568L528.33 749.855L528.164 547.981C518.074 547.846 504.508 549.284 494.911 547.548C481.716 547.41 467.938 538.194 458.972 529.241C450.618 520.899 445.14 509.932 442.687 498.423C439.852 485.119 441.42 457.439 441.465 442.657L441.381 347.251C441.17 343.327 441.138 339.391 441.062 335.463C421.061 335.005 400.975 335.342 380.963 335.26C372.582 335.226 356.424 334.196 348.791 335.551L348.223 336.378L347.483 335.427L345.489 335.355C337.323 335.505 311.125 337.234 305.039 333.271C296.133 327.471 289.69 315.64 283.244 307.352C278.233 300.912 272.492 294.754 268.066 287.891C266.517 285.49 265.107 282.794 264.504 279.989C263.847 276.925 265.754 274.273 267.389 271.818C272.214 264.575 298.988 228.016 304.242 224.633C306.861 222.946 310.595 222.272 313.684 221.971C325.331 220.836 337.644 221.57 349.354 221.564L415.618 221.597C423.008 221.606 433.641 222.578 440.613 221.241C441.421 219.895 441.101 217.515 441.087 215.941C441.278 217.799 441.085 220 442.238 221.469L444.594 221.85C454.818 221.257 465.258 221.656 475.505 221.652Q501.914 221.575 528.321 221.849Z"/>
	<path fill="#ED3434" d="M441.087 215.941C441.278 217.799 441.085 220 442.238 221.469L444.594 221.85C454.818 221.257 465.258 221.656 475.505 221.652Q501.914 221.575 528.321 221.849C527.458 243.74 528.087 265.894 528.08 287.816C528.075 303.605 527.179 319.874 528.301 335.594C500.25 335.351 472.093 334.695 444.051 335.336L442.096 335.587C440.423 338.248 441.635 344.053 441.381 347.251C441.17 343.327 441.138 339.391 441.062 335.463C421.061 335.005 400.975 335.342 380.963 335.26C372.582 335.226 356.424 334.196 348.791 335.551L348.223 336.378L347.483 335.427L345.489 335.355C337.323 335.505 311.125 337.234 305.039 333.271C296.133 327.471 289.69 315.64 283.244 307.352C278.233 300.912 272.492 294.754 268.066 287.891C266.517 285.49 265.107 282.794 264.504 279.989C263.847 276.925 265.754 274.273 267.389 271.818C272.214 264.575 298.988 228.016 304.242 224.633C306.861 222.946 310.595 222.272 313.684 221.971C325.331 220.836 337.644 221.57 349.354 221.564L415.618 221.597C423.008 221.606 433.641 222.578 440.613 221.241C441.421 219.895 441.101 217.515 441.087 215.941Z"/>
	<path fill="#FEFEFE" d="M444.051 335.336C472.093 334.695 500.25 335.351 528.301 335.594C529.339 360.534 528.449 385.812 528.398 410.792L528.402 544.53C528.373 545.636 528.619 546.495 527.848 547.333C516.894 547.979 505.847 546.964 494.911 547.548C481.716 547.41 467.938 538.194 458.972 529.241C450.618 520.899 445.14 509.932 442.687 498.423C439.852 485.119 441.42 457.439 441.465 442.657L441.381 347.251C441.635 344.053 440.423 338.248 442.096 335.587L444.051 335.336Z"/>
	<path fill="#010101" d="M441.381 347.251C441.635 344.053 440.423 338.248 442.096 335.587L444.051 335.336Q444.545 388.183 444.388 441.032L444.3 469.456C444.268 479.13 443.756 489.07 445.924 498.563Q446.435 500.733 447.099 502.861Q447.762 504.989 448.575 507.065Q449.387 509.141 450.344 511.155Q451.301 513.168 452.398 515.109Q453.495 517.05 454.727 518.908Q455.958 520.766 457.318 522.533Q458.678 524.299 460.159 525.965Q461.641 527.631 463.236 529.188C482.322 547.493 504.097 544.809 528.402 544.53C528.373 545.636 528.619 546.495 527.848 547.333C516.894 547.979 505.847 546.964 494.911 547.548C481.716 547.41 467.938 538.194 458.972 529.241C450.618 520.899 445.14 509.932 442.687 498.423C439.852 485.119 441.42 457.439 441.465 442.657L441.381 347.251Z"/>
	<path fill="#FEFEFE" d="M572.509 401.148C579.215 401.069 585.923 400.936 592.629 401.108L596.256 401.397C604.021 418.481 616.072 432.899 634.037 439.688C649.401 445.494 661.605 442.966 677.158 444.222C696.286 445.768 714.139 456.885 722.283 474.527C727.634 486.117 728.822 501.515 724.379 513.585C719.637 526.467 708.927 537.285 696.479 542.883Q694.472 543.78 692.4 544.518Q690.329 545.255 688.206 545.828Q686.083 546.4 683.922 546.805Q681.761 547.21 679.575 547.444C666.488 548.923 652.538 548.009 639.34 547.974L572.577 548.007C572.483 547.095 572.58 546.353 572.732 545.451C575.38 544.156 601.875 545.319 607.515 544.961L608.171 544.915C596.553 543.861 584.207 544.583 572.504 544.528Q572.134 501.687 572.226 458.847C572.183 439.755 571.885 420.609 572.31 401.523L572.509 401.148Z"/>
	<path fill="#010101" d="M592.629 401.108L596.256 401.397C604.021 418.481 616.072 432.899 634.037 439.688C649.401 445.494 661.605 442.966 677.158 444.222C696.286 445.768 714.139 456.885 722.283 474.527C727.634 486.117 728.822 501.515 724.379 513.585C719.637 526.467 708.927 537.285 696.479 542.883Q694.472 543.78 692.4 544.518Q690.329 545.255 688.206 545.828Q686.083 546.4 683.922 546.805Q681.761 547.21 679.575 547.444C666.488 548.923 652.538 548.009 639.34 547.974L572.577 548.007C572.483 547.095 572.58 546.353 572.732 545.451C575.38 544.156 601.875 545.319 607.515 544.961L608.171 544.915C623.585 544.645 639.037 545.008 654.455 545.018C663.1 545.023 672.038 545.365 680.604 544.139Q684.397 543.579 688.08 542.511Q691.763 541.443 695.268 539.887C706.686 534.842 716.815 524.837 721.182 513.036C725.429 501.564 724.527 487.063 719.389 476.028C711.521 459.128 694.546 448.6 676.193 447.222C661.055 446.085 648.792 448.673 633.836 443.102C613.989 435.71 601.118 419.935 592.629 401.108Z"/>
	<path fill="#F7C11B" d="M485.07 866.911C499.319 845.616 508.34 834.832 528.209 818.878L528.107 920.145L528.049 954.732C528.039 960.715 527.75 966.854 528.07 972.821L398.314 972.622C397.71 946.855 400.986 923.394 417.171 902.313Q418.327 900.834 419.542 899.404Q420.757 897.974 422.03 896.595Q423.302 895.215 424.63 893.889Q425.958 892.563 427.34 891.293Q428.721 890.022 430.153 888.809Q431.585 887.596 433.066 886.443Q434.546 885.29 436.073 884.198Q437.599 883.106 439.169 882.078Q440.739 881.049 442.35 880.086Q443.961 879.123 445.609 878.227Q447.258 877.33 448.942 876.502Q450.626 875.674 452.343 874.915Q454.059 874.156 455.806 873.469Q457.552 872.781 459.325 872.165Q461.098 871.55 462.894 871.007Q464.691 870.464 466.508 869.996C472.61 868.438 478.836 867.711 485.07 866.911Z"/>
	<path fill="#010101" d="M572.31 401.523C571.206 401.29 571.048 401.212 570.218 400.449C569.23 394.59 568.853 291.026 569.827 289.145C570.195 288.432 570.926 288.43 571.634 288.196C573.376 300.989 572.335 315.105 572.36 328.041L572.509 401.148L572.31 401.523Z"/>
	<path fill="#F7C11B" d="M872.39 610.986L872.132 368.486L872.013 310.528C871.983 300.658 871.029 289.658 872.575 279.9Q872.728 278.896 872.92 277.9Q873.112 276.903 873.344 275.914Q873.575 274.926 873.846 273.948Q874.116 272.969 874.425 272.002Q874.734 271.035 875.081 270.081Q875.428 269.127 875.812 268.188Q876.197 267.248 876.618 266.325Q877.04 265.401 877.497 264.495Q877.955 263.589 878.448 262.702Q878.941 261.814 879.469 260.947Q879.997 260.08 880.559 259.235Q881.12 258.389 881.715 257.567Q882.31 256.744 882.937 255.946Q883.564 255.147 884.222 254.374Q884.88 253.601 885.568 252.855Q886.256 252.109 886.973 251.39C897.204 241.197 910.967 235.989 925.352 236.069C940.054 236.15 952.793 242.362 962.968 252.828Q964.327 254.253 965.571 255.78Q966.815 257.308 967.936 258.927Q969.056 260.547 970.047 262.249Q971.038 263.951 971.892 265.726Q972.747 267.5 973.461 269.336Q974.174 271.172 974.742 273.058Q975.31 274.944 975.728 276.868Q976.147 278.793 976.414 280.744C978.217 293.101 977.075 310.998 977.076 323.892L977.035 409.545L977.073 551.814C977.142 578.533 977.646 605.366 977.067 632.072C976.551 655.894 967.512 679.27 950.054 695.82Q948.973 696.833 947.857 697.808Q946.741 698.782 945.591 699.718Q944.442 700.653 943.261 701.548Q942.081 702.443 940.869 703.296Q939.658 704.15 938.418 704.961Q937.178 705.772 935.91 706.539Q934.643 707.306 933.349 708.029Q932.056 708.752 930.738 709.43Q929.42 710.107 928.08 710.739Q926.74 711.37 925.378 711.954Q924.016 712.539 922.635 713.076Q921.254 713.613 919.855 714.101Q918.457 714.59 917.042 715.03Q915.627 715.47 914.197 715.86Q912.768 716.25 911.326 716.591Q909.884 716.932 908.431 717.222C896.29 719.765 883.471 718.764 871.126 718.78L822.862 718.86L757.947 718.825C748.061 718.833 737.91 719.444 728.069 718.996C726.481 718.924 725.105 718.653 723.665 717.99L723.4 717.207C726.534 714.713 744.185 715.839 749.03 715.838L839.012 715.801L875.8 715.74C884.476 715.717 893.402 716.11 902.02 715.1Q903.006 714.98 903.988 714.836Q904.97 714.692 905.949 714.524Q906.928 714.355 907.902 714.163Q908.876 713.971 909.845 713.755Q910.814 713.539 911.778 713.299Q912.741 713.06 913.699 712.796Q914.656 712.533 915.607 712.246Q916.557 711.96 917.501 711.65Q918.444 711.34 919.379 711.007Q920.315 710.674 921.242 710.318Q922.169 709.962 923.087 709.584Q924.005 709.205 924.913 708.804Q925.822 708.403 926.72 707.98Q927.618 707.557 928.506 707.112Q929.393 706.667 930.27 706.201Q931.146 705.734 932.011 705.246Q932.876 704.758 933.728 704.249Q934.581 703.74 935.42 703.21Q936.26 702.68 937.087 702.13Q937.913 701.579 938.726 701.009Q939.539 700.439 940.337 699.848Q941.135 699.258 941.919 698.649Q942.703 698.039 943.471 697.41Q944.24 696.781 944.993 696.134Q945.746 695.487 946.483 694.821Q947.219 694.156 947.94 693.472Q948.66 692.789 949.363 692.088Q950.066 691.387 950.752 690.669Q951.438 689.951 952.106 689.216Q952.774 688.481 953.424 687.731Q954.073 686.98 954.705 686.213Q955.336 685.447 955.948 684.665Q957.719 682.389 959.333 679.999Q960.948 677.61 962.398 675.117Q963.848 672.624 965.128 670.04Q966.408 667.456 967.511 664.791Q968.615 662.127 969.537 659.395Q970.459 656.662 971.196 653.874Q971.933 651.086 972.482 648.255Q973.03 645.424 973.387 642.562C974.363 634.273 974.118 625.814 974.131 617.479L974.161 583.252L974.089 467.305L974.142 341.825L974.043 305.304C974.03 298.024 974.388 290.469 973.593 283.237C972.58 274.031 969.596 266.057 963.794 258.747C955.644 248.48 943.565 241.193 930.482 239.689C917.334 238.177 903.567 241.693 893.24 250.084C883.424 258.061 876.574 270.087 875.351 282.736C874.597 290.536 874.993 298.608 875.003 306.448L875.046 345.51L875.224 515.685L875.364 580.435C875.364 590.024 875.77 599.786 875.408 609.353C875.354 610.77 875.313 612.13 874.516 613.344C867.974 615.073 845.382 613.887 836.927 613.883L763.439 613.907L731.17 613.777C714.558 613.642 698.509 612.785 682.408 617.818C660.356 624.712 642.385 639.373 630.752 659.319Q628.716 662.841 627.01 666.534Q625.305 670.227 623.944 674.061Q622.583 677.895 621.578 681.837Q620.573 685.779 619.933 689.796C617.85 702.395 618.541 715.478 618.555 728.219L618.46 777.662C664.806 772.565 708.469 784.069 745.033 813.4C751.593 818.662 757.428 824.518 763.162 830.643C802.093 817.339 844.5 817.068 882 835.421C888.913 838.805 895.916 842.201 902.372 846.409C931.243 865.228 952.557 894.163 963.686 926.623C968.953 941.987 970.746 957.278 971.104 973.42C953.625 972.477 936.024 972.881 918.522 972.888L837.568 972.908L572.572 972.969L572.578 793.523C572.496 792.083 572.516 791.282 573.037 789.895Q583.282 785.716 593.923 782.686Q604.564 779.655 615.473 777.81L615.476 728.963C615.453 718.534 614.93 707.8 615.781 697.409Q615.936 695.352 616.181 693.303Q616.425 691.255 616.76 689.219Q617.095 687.183 617.519 685.164Q617.943 683.145 618.456 681.147Q618.968 679.148 619.568 677.174Q620.168 675.2 620.854 673.254Q621.54 671.309 622.311 669.395Q623.082 667.481 623.936 665.604Q624.791 663.726 625.727 661.887Q626.663 660.049 627.679 658.253Q628.695 656.458 629.79 654.709Q630.884 652.96 632.054 651.26Q633.224 649.561 634.467 647.915Q635.711 646.269 637.026 644.679Q638.341 643.089 639.724 641.559Q641.108 640.028 642.557 638.56C655.091 626.084 669.92 617.314 687.19 613.187C699.369 610.277 711.919 610.841 724.345 610.839L756.916 610.855L872.39 610.986Z"/>
	<path fill="#010101" d="M872.39 610.986L872.132 368.486L872.013 310.528C871.983 300.658 871.029 289.658 872.575 279.9Q872.728 278.896 872.92 277.9Q873.112 276.903 873.344 275.914Q873.575 274.926 873.846 273.948Q874.116 272.969 874.425 272.002Q874.734 271.035 875.081 270.081Q875.428 269.127 875.812 268.188Q876.197 267.248 876.618 266.325Q877.04 265.401 877.497 264.495Q877.955 263.589 878.448 262.702Q878.941 261.814 879.469 260.947Q879.997 260.08 880.559 259.235Q881.12 258.389 881.715 257.567Q882.31 256.744 882.937 255.946Q883.564 255.147 884.222 254.374Q884.88 253.601 885.568 252.855Q886.256 252.109 886.973 251.39C897.204 241.197 910.967 235.989 925.352 236.069C940.054 236.15 952.793 242.362 962.968 252.828Q964.327 254.253 965.571 255.78Q966.815 257.308 967.936 258.927Q969.056 260.547 970.047 262.249Q971.038 263.951 971.892 265.726Q972.747 267.5 973.461 269.336Q974.174 271.172 974.742 273.058Q975.31 274.944 975.728 276.868Q976.147 278.793 976.414 280.744C978.217 293.101 977.075 310.998 977.076 323.892L977.035 409.545L977.073 551.814C977.142 578.533 977.646 605.366 977.067 632.072C976.551 655.894 967.512 679.27 950.054 695.82Q948.973 696.833 947.857 697.808Q946.741 698.782 945.591 699.718Q944.442 700.653 943.261 701.548Q942.081 702.443 940.869 703.296Q939.658 704.15 938.418 704.961Q937.178 705.772 935.91 706.539Q934.643 707.306 933.349 708.029Q932.056 708.752 930.738 709.43Q929.42 710.107 928.08 710.739Q926.74 711.37 925.378 711.954Q924.016 712.539 922.635 713.076Q921.254 713.613 919.855 714.101Q918.457 714.59 917.042 715.03Q915.627 715.47 914.197 715.86Q912.768 716.25 911.326 716.591Q909.884 716.932 908.431 717.222C896.29 719.765 883.471 718.764 871.126 718.78L822.862 718.86L757.947 718.825C748.061 718.833 737.91 719.444 728.069 718.996C726.481 718.924 725.105 718.653 723.665 717.99L723.4 717.207C726.534 714.713 744.185 715.839 749.03 715.838L839.012 715.801L875.8 715.74C884.476 715.717 893.402 716.11 902.02 715.1Q903.006 714.98 903.988 714.836Q904.97 714.692 905.949 714.524Q906.928 714.355 907.902 714.163Q908.876 713.971 909.845 713.755Q910.814 713.539 911.778 713.299Q912.741 713.06 913.699 712.796Q914.656 712.533 915.607 712.246Q916.557 711.96 917.501 711.65Q918.444 711.34 919.379 711.007Q920.315 710.674 921.242 710.318Q922.169 709.962 923.087 709.584Q924.005 709.205 924.913 708.804Q925.822 708.403 926.72 707.98Q927.618 707.557 928.506 707.112Q929.393 706.667 930.27 706.201Q931.146 705.734 932.011 705.246Q932.876 704.758 933.728 704.249Q934.581 703.74 935.42 703.21Q936.26 702.68 937.087 702.13Q937.913 701.579 938.726 701.009Q939.539 700.439 940.337 699.848Q941.135 699.258 941.919 698.649Q942.703 698.039 943.471 697.41Q944.24 696.781 944.993 696.134Q945.746 695.487 946.483 694.821Q947.219 694.156 947.94 693.472Q948.66 692.789 949.363 692.088Q950.066 691.387 950.752 690.669Q951.438 689.951 952.106 689.216Q952.774 688.481 953.424 687.731Q954.073 686.98 954.705 686.213Q955.336 685.447 955.948 684.665Q957.719 682.389 959.333 679.999Q960.948 677.61 962.398 675.117Q963.848 672.624 965.128 670.04Q966.408 667.456 967.511 664.791Q968.615 662.127 969.537 659.395Q970.459 656.662 971.196 653.874Q971.933 651.086 972.482 648.255Q973.03 645.424 973.387 642.562C974.363 634.273 974.118 625.814 974.131 617.479L974.161 583.252L974.089 467.305L974.142 341.825L974.043 305.304C974.03 298.024 974.388 290.469 973.593 283.237C972.58 274.031 969.596 266.057 963.794 258.747C955.644 248.48 943.565 241.193 930.482 239.689C917.334 238.177 903.567 241.693 893.24 250.084C883.424 258.061 876.574 270.087 875.351 282.736C874.597 290.536 874.993 298.608 875.003 306.448L875.046 345.51L875.224 515.685L875.364 580.435C875.364 590.024 875.77 599.786 875.408 609.353C875.354 610.77 875.313 612.13 874.516 613.344C867.974 615.073 845.382 613.887 836.927 613.883L763.439 613.907L731.17 613.777C714.558 613.642 698.509 612.785 682.408 617.818C660.356 624.712 642.385 639.373 630.752 659.319Q628.716 662.841 627.01 666.534Q625.305 670.227 623.944 674.061Q622.583 677.895 621.578 681.837Q620.573 685.779 619.933 689.796C617.85 702.395 618.541 715.478 618.555 728.219L618.46 777.662C664.806 772.565 708.469 784.069 745.033 813.4C751.593 818.662 757.428 824.518 763.162 830.643C778.19 848.733 788.401 864.435 795.792 886.915C797.116 890.94 799.309 896.475 799.079 900.739C799.013 901.974 799.041 902.742 798.057 903.582C797.044 903.072 796.645 902.098 796.286 901.077C795.284 898.233 794.874 895.029 794.173 892.089C793.008 887.2 791.475 882.663 789.588 878.012C774.351 840.461 742.49 808.37 705.051 792.725C660.407 774.07 616.887 775.401 572.578 793.523C572.496 792.083 572.516 791.282 573.037 789.895Q583.282 785.716 593.923 782.686Q604.564 779.655 615.473 777.81L615.476 728.963C615.453 718.534 614.93 707.8 615.781 697.409Q615.936 695.352 616.181 693.303Q616.425 691.255 616.76 689.219Q617.095 687.183 617.519 685.164Q617.943 683.145 618.456 681.147Q618.968 679.148 619.568 677.174Q620.168 675.2 620.854 673.254Q621.54 671.309 622.311 669.395Q623.082 667.481 623.936 665.604Q624.791 663.726 625.727 661.887Q626.663 660.049 627.679 658.253Q628.695 656.458 629.79 654.709Q630.884 652.96 632.054 651.26Q633.224 649.561 634.467 647.915Q635.711 646.269 637.026 644.679Q638.341 643.089 639.724 641.559Q641.108 640.028 642.557 638.56C655.091 626.084 669.92 617.314 687.19 613.187C699.369 610.277 711.919 610.841 724.345 610.839L756.916 610.855L872.39 610.986Z"/>
	<path fill="#ED3434" d="M593.696 288.535L596.806 288.568C639.764 289.668 682.9 289.087 725.881 288.962L761.452 288.889C767.945 288.883 775.036 288.286 781.427 289.341C785.124 289.951 787.577 292.123 790.106 294.763C798.671 303.703 806.365 313.658 814.474 323.016C818.69 327.882 823.954 332.523 827.367 337.99C828.642 340.031 829.529 342.347 829.427 344.786C829.316 347.444 828.15 349.87 826.736 352.073C823.926 356.447 820.041 360.366 816.761 364.403Q807.473 375.99 797.909 387.349C794.63 391.271 791.529 395.747 787.572 399.004C785.495 400.713 782.102 400.858 779.503 401.003C772.924 401.372 766.208 401.079 759.611 401.087L721.714 401.146Q658.984 400.932 596.256 401.397L592.629 401.108C585.923 400.936 579.215 401.069 572.509 401.148L572.36 328.041C572.335 315.105 573.376 300.989 571.634 288.196C578.764 289.047 586.491 288.492 593.696 288.535Z"/>
	<path fill="#010101" d="M441.087 215.941C438.953 196.373 429.356 179.476 413.933 167.221C405.218 160.295 394.709 155.894 383.835 153.697C372.703 151.447 360.829 152.14 349.509 152.126L304.151 152.2C295.598 152.249 285.97 153.381 277.72 150.844C266.616 147.431 258.944 137.671 257.665 126.195C256.72 117.724 257.831 108.799 257.689 100.273C257.469 87.0878 250.817 73.4744 240.568 65.195C228.57 55.5025 213.084 53.5261 198.129 55.0833C184.97 56.4535 173.682 62.5766 165.392 72.9649C160.423 79.1919 157.378 86.448 156.161 94.3046C153.697 110.212 160.153 130.577 147.572 143.146C143.246 147.468 137.474 149.772 131.479 150.514C109.296 153.261 91.0762 145.683 74.5971 166.794Q73.0543 168.747 71.7401 170.861Q70.4259 172.975 69.357 175.223Q68.2881 177.471 67.478 179.825Q66.6678 182.178 66.1266 184.608C64.1883 193.369 64.3374 243.093 65.6928 253.267C67.1116 263.917 72.2023 273.139 80.8044 279.658C96.3458 291.436 115.428 286.633 133.451 287.734C134.903 287.823 135.88 287.84 136.426 289.3L135.819 290.279C129.196 291.821 102.272 291.112 95.4104 289.739Q93.6934 289.4 92.0136 288.909Q90.3338 288.418 88.7048 287.778Q87.0758 287.138 85.5107 286.355Q83.9455 285.572 82.4568 284.652C72.4787 278.538 65.9467 268.738 63.3088 257.403C60.5608 245.596 61.9047 229.814 61.8734 217.58C61.8481 207.67 60.9636 197.16 62.4937 187.371C63.517 180.824 65.6673 174.383 69.181 168.742Q69.759 167.808 70.383 166.904Q71.007 166 71.6755 165.128Q72.344 164.256 73.0553 163.419Q73.7665 162.582 74.5188 161.781Q75.271 160.981 76.0624 160.219Q76.8538 159.457 77.6823 158.735Q78.5109 158.014 79.3745 157.335Q80.238 156.656 81.1345 156.021Q82.031 155.386 82.9581 154.797Q83.8852 154.208 84.8407 153.665Q85.7962 153.123 86.7775 152.63Q87.7589 152.136 88.7638 151.692Q89.7686 151.248 90.7944 150.855Q91.8203 150.462 92.8645 150.121Q93.9087 149.779 94.9687 149.491Q96.0286 149.202 97.1017 148.967C113.484 145.308 137.324 153.983 148.239 137.525C159.991 119.805 141.162 89.613 168.653 64.8809C174.968 59.1995 182.667 54.9569 190.994 53.1344C206.573 49.7246 225.173 51.2647 238.748 60.067C248.854 66.6197 257.075 78.39 259.589 90.1989C263.325 107.745 253.611 132.707 271.35 144.553C280.162 150.437 291.448 149.468 301.536 149.441L346.869 149.418C356.755 149.417 367.058 148.822 376.894 149.729C395.552 151.449 413.528 160.146 425.854 174.351Q427.382 176.078 428.8 177.898Q430.217 179.717 431.518 181.622Q432.819 183.526 433.998 185.509Q435.177 187.491 436.23 189.543Q437.283 191.595 438.206 193.709Q439.128 195.823 439.916 197.99Q440.705 200.158 441.356 202.37Q442.007 204.583 442.519 206.832C443.612 211.765 444.134 216.824 444.594 221.85L442.238 221.469C441.085 220 441.278 217.799 441.087 215.941Z"/>
	<path fill="#010101" d="M593.696 288.535C597.231 272.294 602.402 265.645 610.535 251.614C612.893 247.546 615.451 243.408 617.065 238.978C619.527 232.22 618.977 185.383 617.477 177.269Q616.967 174.373 616.172 171.542Q615.378 168.711 614.307 165.972Q613.237 163.233 611.9 160.614Q610.564 157.994 608.975 155.52C600.192 142.009 586.323 131.725 570.415 128.492C557.116 125.79 541.769 127.117 528.229 127.151C510.885 127.196 496.231 126.72 485.646 110.881C480.026 102.472 478.087 92.6788 480.207 82.7656Q480.394 81.9012 480.624 81.0472Q480.854 80.1932 481.126 79.3516Q481.398 78.5101 481.711 77.683Q482.024 76.856 482.378 76.0455Q482.732 75.235 483.126 74.443Q483.519 73.6511 483.952 72.8796Q484.384 72.1082 484.854 71.3591Q485.325 70.6101 485.832 69.8853Q486.338 69.1605 486.88 68.4617Q487.422 67.7629 487.999 67.0919Q488.575 66.4208 489.183 65.7792Q489.792 65.1376 490.432 64.5269Q491.071 63.9162 491.741 63.338Q492.41 62.7598 493.107 62.2156Q493.804 61.6713 494.527 61.1622Q495.25 60.6532 495.998 60.1806C500.786 57.1552 505.818 55.4226 511.465 54.8886C525.433 53.5677 540.695 54.5449 554.775 54.5546L638.12 54.6135L670.041 54.6393C673.656 54.6385 678.298 53.9329 681.773 54.6276C682.645 54.8019 682.988 54.8812 683.592 55.478L683.637 56.6617C681.936 58.3031 676.513 57.7158 674.178 57.6766C637.125 57.0543 599.953 57.525 562.892 57.6092L531.994 57.6925C524.427 57.7048 516.545 57.1824 509.069 58.5133C502.8 59.6294 497.27 62.2552 492.671 66.6863Q492.07 67.2649 491.498 67.8724Q490.927 68.4799 490.386 69.1149Q489.845 69.75 489.336 70.4109Q488.827 71.0719 488.351 71.7572Q487.875 72.4425 487.434 73.1505Q486.993 73.8585 486.587 74.5873Q486.181 75.3162 485.812 76.0643Q485.443 76.8123 485.111 77.5777Q484.779 78.3431 484.485 79.1239Q484.192 79.9048 483.937 80.6991Q483.682 81.4935 483.467 82.2995Q483.252 83.1055 483.077 83.9212Q482.902 84.7368 482.767 85.5601Q482.633 86.3834 482.539 87.2123Q482.445 88.0413 482.392 88.8738Q482.34 89.7064 482.328 90.5405C482.261 99.524 486.172 108.248 492.458 114.598C499.921 122.137 509.049 124.335 519.364 124.323C549.574 124.287 579.146 119.14 602.655 142.736C620.563 160.71 621.486 177.774 621.337 201.617L621.381 227.775C621.222 250.481 601.543 264.335 596.806 288.568L593.696 288.535Z"/>
	<path fill="#010101" d="M893.592 52.6264C897.877 52.249 902.246 52.3175 906.548 52.2938C922.261 52.2072 935.664 54.1613 947.301 65.8315C953.954 72.5022 958.801 81.7338 960.867 90.9007C963.19 101.212 961.934 113.42 961.851 123.983L961.682 163.649C961.668 165.449 961.748 167.6 960.382 168.947L959.461 168.861C956.523 162.462 960.256 107.04 957.908 93.292C955.914 81.6102 949.272 70.2517 939.52 63.4168C929.321 56.2693 919.117 55.4432 907.044 55.4259C902.302 55.4191 897.514 55.4103 892.832 56.2534C884.283 57.7926 875.85 61.8902 869.682 68.0573C843.082 94.653 867.555 134.92 849.6 160.019C844.113 167.688 836.482 171.304 827.386 172.861C820.456 173.704 812.887 173.175 805.901 173.162C788.5 173.131 770.854 172.445 753.478 173.162C745.827 173.478 738.534 175.522 732.259 180.017C708.02 197.38 723.943 235.788 717.181 243.12L716.269 243.088C716.133 242.663 716.021 242.359 715.931 241.935C714.734 236.327 715.073 204.419 716.325 198.505Q716.681 196.895 717.194 195.328Q717.706 193.76 718.371 192.251Q719.035 190.742 719.845 189.305Q720.655 187.869 721.602 186.519Q722.496 185.23 723.494 184.019Q724.492 182.808 725.587 181.684Q726.682 180.561 727.866 179.532Q729.051 178.503 730.317 177.576Q731.583 176.65 732.922 175.831Q734.26 175.013 735.662 174.309Q737.064 173.604 738.52 173.019Q739.976 172.433 741.475 171.971C749.015 169.711 757.18 170.271 764.958 170.254L804.362 170.274C812.138 170.287 820.603 171.026 828.245 169.604C864.931 162.776 849.813 118.034 854.147 92.1154Q854.589 89.4701 855.322 86.8901Q856.055 84.3102 857.069 81.8276Q858.084 79.3449 859.368 76.9902Q860.652 74.6355 862.189 72.4378C869.825 61.4471 880.52 55.0492 893.592 52.6264Z"/>
	<path fill="#ED3434" d="M456.717 729.383C456.591 725.051 455.245 715.874 457.877 712.522C458.794 713.134 458.757 713.458 458.985 714.501C460.026 719.264 459.379 724.576 459.456 729.429C462.895 729.457 473.702 728.688 476.307 729.95L476.73 731.793C471.112 732.719 464.854 731.29 459.448 732.506C459.365 736.776 460.098 741.595 459.382 745.752C459.127 747.234 458.728 749.311 457.452 750.176C455.484 745.474 456.489 737.776 456.602 732.659C452.182 731.545 441.617 733.494 438.686 731.24L439.005 730.477C443.156 728.218 451.873 729.388 456.717 729.383Z"/>
	<path fill="#ED3434" d="M781.38 57.6603C781.366 54.2161 780.327 44.6252 782.393 42.2357C783.286 42.8183 783.247 43.1679 783.451 44.1796C784.311 48.4639 783.889 53.5409 783.892 57.9314C788.815 58.0267 797.191 56.8676 801.66 59.197C801.351 59.7207 801.562 59.582 800.984 59.7231C795.68 61.0178 789.417 60.4648 783.958 60.3432C783.972 64.537 784.934 71.9151 783.557 75.6878C783.125 76.8708 783.434 76.4996 782.365 77.0008C780.308 73.447 781.431 64.6127 781.484 60.3333C776.437 60.5462 769.961 60.8341 765.262 58.8973L765.426 58.5193C768.662 57.9028 771.549 57.7882 774.838 57.9134C777.023 57.7802 779.19 57.649 781.38 57.6603Z"/>
</svg>
