<svg version="1.1" id="Layer_1" xmlns="http://www.w3.org/2000/svg" xmlns:xlink="http://www.w3.org/1999/xlink" x="0px" y="0px"
	 width="100%" viewBox="0 0 625 313" enable-background="new 0 0 625 313" xml:space="preserve">
<path fill="#000000" opacity="1.000000" stroke="none" 
	d="
M382.000000,314.000000 
	C254.666672,314.000000 127.833336,314.000000 1.000000,314.000000 
	C1.000000,209.666672 1.000000,105.333336 1.000000,1.000000 
	C209.333328,1.000000 417.666656,1.000000 626.000000,1.000000 
	C626.000000,105.333336 626.000000,209.666672 626.000000,314.000000 
	C544.833313,314.000000 463.666656,314.000000 382.000000,314.000000 
M185.483383,79.116188 
	C185.377808,79.403183 185.272232,79.690186 185.028168,80.908340 
	C185.074326,95.276375 185.120499,109.644409 185.116180,124.516632 
	C185.403183,124.622200 185.690170,124.727768 186.908356,124.971825 
	C202.489532,124.971825 218.070709,124.971825 233.669891,124.971825 
	C233.669891,154.642090 233.669891,183.666687 233.669891,213.166656 
	C217.557129,213.166656 201.772354,213.166656 185.483368,213.116196 
	C185.377792,213.403183 185.272217,213.690186 185.028168,214.908371 
	C185.074326,229.276382 185.120499,243.644409 185.116180,258.516632 
	C185.403168,258.622223 185.690170,258.727783 186.908356,258.971832 
	C224.943039,258.925659 262.977722,258.879486 301.516632,258.883820 
	C301.622192,258.596802 301.727753,258.309814 301.971832,257.091644 
	C301.981171,245.444229 302.017212,233.796768 301.989868,222.149445 
	C301.973236,215.060654 300.251190,213.291534 293.050018,213.023773 
	C289.560547,212.894028 286.062347,213.000137 282.568085,213.000061 
	C273.149628,212.999878 263.731201,213.000000 254.334686,213.000000 
	C254.334686,183.335953 254.334686,154.317596 254.334686,124.833336 
	C270.115723,124.833336 285.564056,124.833336 301.516632,124.883820 
	C301.622192,124.596817 301.727783,124.309822 301.971832,123.091660 
	C301.969269,109.609100 302.001617,96.126228 301.882324,82.644707 
	C301.874725,81.782318 300.817871,80.346329 300.034119,80.177948 
	C297.147552,79.557762 294.170593,79.050568 291.227356,79.049049 
	C256.147430,79.031006 221.067505,79.111778 185.483383,79.116188 
M18.060278,231.271927 
	C22.631863,239.195679 28.487026,245.900986 36.141953,251.052017 
	C49.475063,260.023895 64.654884,262.888275 80.175591,263.873932 
	C96.190315,264.890961 111.873093,263.341339 126.799294,256.204529 
	C139.630234,250.069595 150.196533,241.740021 156.878983,229.171341 
	C162.920273,217.808594 163.739594,205.451492 161.896698,192.897614 
	C160.492737,183.333679 155.918564,175.087936 148.973770,168.729904 
	C138.823975,159.437698 125.704369,156.153915 112.686401,152.991394 
	C99.102875,149.691452 85.457733,146.596954 72.012268,142.800842 
	C66.718925,141.306366 62.623878,137.604645 61.974503,131.342178 
	C61.272453,124.571754 65.476570,121.086693 70.532890,118.200287 
	C78.465698,113.671829 87.171654,114.530754 95.627403,115.476639 
	C99.963478,115.961678 104.587120,117.561127 108.210007,119.967781 
	C115.704193,124.946106 117.820824,133.041779 118.197380,141.692261 
	C132.544785,141.692261 146.609024,141.692261 160.999268,141.692261 
	C160.999268,139.414810 161.128403,137.431366 160.962830,135.472809 
	C160.798355,133.527115 160.205460,131.618607 160.026764,129.672989 
	C158.010452,107.720825 145.491760,92.661652 127.028854,82.808754 
	C107.127998,72.188484 85.387344,71.932343 63.676922,76.116127 
	C51.025257,78.554207 39.223576,83.685524 29.886997,92.785202 
	C18.850077,103.542076 13.792639,116.855400 13.863451,132.523376 
	C13.955402,152.868546 23.805285,166.807159 41.011265,175.870331 
	C54.494267,182.972427 69.419960,185.985687 84.266006,189.101028 
	C92.485725,190.825867 100.686996,193.081345 108.514038,196.092133 
	C114.578232,198.424805 116.578156,204.482101 114.511391,209.980057 
	C112.217056,216.083389 107.217850,219.335785 101.433701,220.845703 
	C94.006767,222.784424 86.453972,223.641937 78.599281,222.121109 
	C66.236389,219.727417 58.408337,214.868500 54.553112,202.979187 
	C53.527027,199.814774 53.276661,196.398834 52.703091,193.277679 
	C38.253006,193.277679 24.321737,193.277679 9.996358,193.277679 
	C9.990578,206.469849 12.346164,218.823349 18.060278,231.271927 
M603.065613,233.311783 
	C594.680725,215.090775 586.386292,196.827469 577.886230,178.660400 
	C569.029907,159.732010 559.946472,140.910004 551.022034,122.013306 
	C547.681824,114.940689 544.552612,107.768661 541.248413,100.678665 
	C537.995667,93.698921 534.643127,86.765648 530.966553,79.038940 
	C501.864624,141.152283 473.246643,202.232666 444.483215,263.623535 
	C502.477356,263.623535 559.643311,263.623535 617.611023,263.623535 
	C612.703003,253.332382 608.085327,243.650055 603.065613,233.311783 
M338.926941,104.635925 
	C340.607727,107.040756 342.314758,109.427696 343.965118,111.853233 
	C356.629669,130.466766 369.407959,149.005020 381.858826,167.760544 
	C385.279022,172.912582 389.373383,177.549271 389.206543,184.888977 
	C388.657654,209.035141 389.000000,233.201584 389.000000,257.360229 
	C389.000000,259.128052 389.000000,260.895874 389.000000,262.626343 
	C396.017548,262.626343 402.403503,262.626343 409.000000,262.626343 
	C409.000000,237.773804 409.183319,213.292023 408.877380,188.816345 
	C408.795959,182.301987 410.183014,176.964417 413.972168,171.517853 
	C428.972137,149.956650 443.488434,128.059082 458.200378,106.297264 
	C464.178375,97.454659 470.198059,88.640236 476.497040,79.374237 
	C424.499481,79.374237 373.362976,79.374237 321.762024,79.374237 
	C327.556793,87.907227 333.031586,95.969009 338.926941,104.635925 
z"/>
<path fill="#FF1818" opacity="1.000000" stroke="none" 
	d="
M17.984634,230.898468 
	C12.346164,218.823349 9.990578,206.469849 9.996358,193.277679 
	C24.321737,193.277679 38.253006,193.277679 52.703091,193.277679 
	C53.276661,196.398834 53.527027,199.814774 54.553112,202.979187 
	C58.408337,214.868500 66.236389,219.727417 78.599281,222.121109 
	C86.453972,223.641937 94.006767,222.784424 101.433701,220.845703 
	C107.217850,219.335785 112.217056,216.083389 114.511391,209.980057 
	C116.578156,204.482101 114.578232,198.424805 108.514038,196.092133 
	C100.686996,193.081345 92.485725,190.825867 84.266006,189.101028 
	C69.419960,185.985687 54.494267,182.972427 41.011265,175.870331 
	C23.805285,166.807159 13.955402,152.868546 13.863451,132.523376 
	C13.792639,116.855400 18.850077,103.542076 29.886997,92.785202 
	C39.223576,83.685524 51.025257,78.554207 63.676922,76.116127 
	C85.387344,71.932343 107.127998,72.188484 127.028854,82.808754 
	C145.491760,92.661652 158.010452,107.720825 160.026764,129.672989 
	C160.205460,131.618607 160.798355,133.527115 160.962830,135.472809 
	C161.128403,137.431366 160.999268,139.414810 160.999268,141.692261 
	C146.609024,141.692261 132.544785,141.692261 118.197380,141.692261 
	C117.820824,133.041779 115.704193,124.946106 108.210007,119.967781 
	C104.587120,117.561127 99.963478,115.961678 95.627403,115.476639 
	C87.171654,114.530754 78.465698,113.671829 70.532890,118.200287 
	C65.476570,121.086693 61.272453,124.571754 61.974503,131.342178 
	C62.623878,137.604645 66.718925,141.306366 72.012268,142.800842 
	C85.457733,146.596954 99.102875,149.691452 112.686401,152.991394 
	C125.704369,156.153915 138.823975,159.437698 148.973770,168.729904 
	C155.918564,175.087936 160.492737,183.333679 161.896698,192.897614 
	C163.739594,205.451492 162.920273,217.808594 156.878983,229.171341 
	C150.196533,241.740021 139.630234,250.069595 126.799294,256.204529 
	C111.873093,263.341339 96.190315,264.890961 80.175591,263.873932 
	C64.654884,262.888275 49.475063,260.023895 36.141953,251.052017 
	C28.487026,245.900986 22.631863,239.195679 17.984634,230.898468 
z"/>
<path fill="#FF1818" opacity="1.000000" stroke="none" 
	d="
M603.266602,233.639740 
	C608.085327,243.650055 612.703003,253.332382 617.611023,263.623535 
	C559.643311,263.623535 502.477356,263.623535 444.483215,263.623535 
	C473.246643,202.232666 501.864624,141.152283 530.966553,79.038940 
	C534.643127,86.765648 537.995667,93.698921 541.248413,100.678665 
	C544.552612,107.768661 547.681824,114.940689 551.022034,122.013306 
	C559.946472,140.910004 569.029907,159.732010 577.886230,178.660400 
	C586.386292,196.827469 594.680725,215.090775 603.266602,233.639740 
z"/>
<path fill="#FF1818" opacity="1.000000" stroke="none" 
	d="
M185.166656,124.012444 
	C185.120499,109.644409 185.074326,95.276375 185.243774,80.317566 
	C185.648773,79.552658 185.824829,79.365952 185.987564,79.166664 
	C221.067505,79.111778 256.147430,79.031006 291.227356,79.049049 
	C294.170593,79.050568 297.147552,79.557762 300.034119,80.177948 
	C300.817871,80.346329 301.874725,81.782318 301.882324,82.644707 
	C302.001617,96.126228 301.969269,109.609100 301.756226,123.682434 
	C301.351196,124.447319 301.175140,124.634033 301.012421,124.833336 
	C285.564056,124.833336 270.115723,124.833336 254.334686,124.833336 
	C254.334686,154.317596 254.334686,183.335953 254.334686,213.000000 
	C263.731201,213.000000 273.149628,212.999878 282.568085,213.000061 
	C286.062347,213.000137 289.560547,212.894028 293.050018,213.023773 
	C300.251190,213.291534 301.973236,215.060654 301.989868,222.149445 
	C302.017212,233.796768 301.981171,245.444229 301.756226,257.682434 
	C301.351196,258.447327 301.175140,258.634033 301.012421,258.833344 
	C262.977722,258.879486 224.943039,258.925659 186.317566,258.756226 
	C185.552643,258.351196 185.365936,258.175140 185.166656,258.012421 
	C185.120499,243.644409 185.074326,229.276382 185.243774,214.317596 
	C185.648773,213.552658 185.824829,213.365952 185.987579,213.166656 
	C201.772354,213.166656 217.557129,213.166656 233.669891,213.166656 
	C233.669891,183.666687 233.669891,154.642090 233.669891,124.971825 
	C218.070709,124.971825 202.489532,124.971825 186.317566,124.756210 
	C185.552658,124.351212 185.365952,124.175156 185.166656,124.012444 
z"/>
<path fill="#FF1818" opacity="1.000000" stroke="none" 
	d="
M338.716644,104.333359 
	C333.031586,95.969009 327.556793,87.907227 321.762024,79.374237 
	C373.362976,79.374237 424.499481,79.374237 476.497040,79.374237 
	C470.198059,88.640236 464.178375,97.454659 458.200378,106.297264 
	C443.488434,128.059082 428.972137,149.956650 413.972168,171.517853 
	C410.183014,176.964417 408.795959,182.301987 408.877380,188.816345 
	C409.183319,213.292023 409.000000,237.773804 409.000000,262.626343 
	C402.403503,262.626343 396.017548,262.626343 389.000000,262.626343 
	C389.000000,260.895874 389.000000,259.128052 389.000000,257.360229 
	C389.000000,233.201584 388.657654,209.035141 389.206543,184.888977 
	C389.373383,177.549271 385.279022,172.912582 381.858826,167.760544 
	C369.407959,149.005020 356.629669,130.466766 343.965118,111.853233 
	C342.314758,109.427696 340.607727,107.040756 338.716644,104.333359 
z"/>
<path fill="#FF1818" opacity="1.000000" stroke="none" 
	d="
M185.735474,79.141426 
	C185.824829,79.365952 185.648773,79.552658 185.313019,79.851990 
	C185.272232,79.690186 185.377808,79.403183 185.735474,79.141426 
z"/>
<path fill="#FF1818" opacity="1.000000" stroke="none" 
	d="
M185.141418,124.264542 
	C185.365952,124.175156 185.552658,124.351212 185.851990,124.686966 
	C185.690170,124.727768 185.403183,124.622200 185.141418,124.264542 
z"/>
<path fill="#FF1818" opacity="1.000000" stroke="none" 
	d="
M301.264526,124.858582 
	C301.175140,124.634033 301.351196,124.447319 301.686981,124.148010 
	C301.727783,124.309822 301.622192,124.596817 301.264526,124.858582 
z"/>
<path fill="#FF1818" opacity="1.000000" stroke="none" 
	d="
M185.735474,213.141418 
	C185.824829,213.365952 185.648773,213.552658 185.313019,213.851990 
	C185.272217,213.690186 185.377792,213.403183 185.735474,213.141418 
z"/>
<path fill="#FF1818" opacity="1.000000" stroke="none" 
	d="
M185.141418,258.264526 
	C185.365936,258.175140 185.552643,258.351196 185.851974,258.686951 
	C185.690170,258.727783 185.403168,258.622223 185.141418,258.264526 
z"/>
<path fill="#FF1818" opacity="1.000000" stroke="none" 
	d="
M301.264526,258.858582 
	C301.175140,258.634033 301.351196,258.447327 301.686951,258.148010 
	C301.727753,258.309814 301.622192,258.596802 301.264526,258.858582 
z"/>
</svg>