<svg xmlns="http://www.w3.org/2000/svg" xmlns:xlink="http://www.w3.org/1999/xlink" width="200" zoomAndPan="magnify" viewBox="0 0 150 74.999997" height="100" preserveAspectRatio="xMidYMid meet" version="1.2"><defs><clipPath id="5226019e1e"><path d="M 106.648438 19.023438 L 147.75 19.023438 L 147.75 62.855469 L 106.648438 62.855469 Z M 106.648438 19.023438 "/></clipPath><clipPath id="e77c3ff670"><path d="M 127.199219 19.023438 L 147.75 62.816406 L 106.648438 62.816406 Z M 127.199219 19.023438 "/></clipPath></defs><g id="e2f55d46ed"><g style="fill:#ff1818;fill-opacity:1;"><g transform="translate(-2.249997, 61.842411)"><path style="stroke:none" d="M 23.203125 1.109375 C 17.222656 1.109375 12.613281 -0.300781 9.375 -3.125 C 6.132812 -5.945312 4.535156 -10.1875 4.578125 -15.84375 L 14.65625 -15.84375 C 14.613281 -13.488281 15.3125 -11.691406 16.75 -10.453125 C 18.195312 -9.210938 20.222656 -8.59375 22.828125 -8.59375 C 24.972656 -8.59375 26.660156 -8.941406 27.890625 -9.640625 C 29.128906 -10.347656 29.75 -11.421875 29.75 -12.859375 C 29.75 -14.054688 29.117188 -14.921875 27.859375 -15.453125 C 26.609375 -15.992188 25.363281 -16.378906 24.125 -16.609375 C 22.882812 -16.835938 22.125 -16.972656 21.84375 -17.015625 C 18.664062 -17.628906 15.921875 -18.378906 13.609375 -19.265625 C 11.296875 -20.148438 9.351562 -21.5 7.78125 -23.3125 C 6.21875 -25.132812 5.4375 -27.53125 5.4375 -30.5 C 5.4375 -33.46875 6.21875 -35.992188 7.78125 -38.078125 C 9.351562 -40.160156 11.445312 -41.71875 14.0625 -42.75 C 16.6875 -43.78125 19.546875 -44.296875 22.640625 -44.296875 C 26.390625 -44.296875 29.632812 -43.59375 32.375 -42.1875 C 35.125 -40.78125 37.28125 -38.65625 38.84375 -35.8125 C 39.625 -34.457031 40.097656 -33.148438 40.265625 -31.890625 C 40.429688 -30.628906 40.515625 -29.398438 40.515625 -28.203125 L 30.4375 -28.203125 C 30.4375 -30.429688 29.835938 -32.070312 28.640625 -33.125 C 27.441406 -34.175781 25.585938 -34.703125 23.078125 -34.703125 C 21.054688 -34.703125 19.488281 -34.347656 18.375 -33.640625 C 17.257812 -32.941406 16.703125 -32 16.703125 -30.8125 C 16.703125 -29.488281 17.441406 -28.515625 18.921875 -27.890625 C 20.410156 -27.273438 22.289062 -26.722656 24.5625 -26.234375 C 28.269531 -25.484375 31.164062 -24.769531 33.25 -24.09375 C 35.332031 -23.414062 37.132812 -22.207031 38.65625 -20.46875 C 40.1875 -18.738281 40.953125 -16.304688 40.953125 -13.171875 C 40.953125 -10.203125 40.125 -7.644531 38.46875 -5.5 C 36.820312 -3.351562 34.648438 -1.710938 31.953125 -0.578125 C 29.253906 0.546875 26.335938 1.109375 23.203125 1.109375 Z M 23.203125 1.109375 "/></g></g><g clip-rule="nonzero" clip-path="url(#5226019e1e)"><g clip-rule="nonzero" clip-path="url(#e77c3ff670)"><path style=" stroke:none;fill-rule:nonzero;fill:#ff1818;fill-opacity:1;" d="M 106.648438 19.023438 L 147.75 19.023438 L 147.75 62.855469 L 106.648438 62.855469 Z M 106.648438 19.023438 "/></g></g><g style="fill:#ff1818;fill-opacity:1;"><g transform="translate(35.3915, 61.842411)"><path style="stroke:none" d="M 8.96875 -32.171875 L 8.96875 -43.046875 L 36.8125 -43.046875 L 36.8125 -32.171875 L 24 -32.171875 L 24 -10.890625 L 36.8125 -10.890625 L 36.8125 0 L 8.96875 0 L 8.96875 -10.890625 L 21.78125 -10.890625 L 21.78125 -32.171875 Z M 8.96875 -32.171875 "/></g></g><path style="fill:none;stroke-width:6;stroke-linecap:butt;stroke-linejoin:miter;stroke:#ff1818;stroke-opacity:1;stroke-miterlimit:4;" d="M -0.00157838 2.998805 L 53.534884 2.998805 " transform="matrix(0,0.75,-0.75,0,60.526448,19.934778)"/><g style="fill:#ff1818;fill-opacity:1;"><g transform="translate(72.658797, 61.842411)"><path style="stroke:none" d="M 4.515625 -43.046875 L 41.265625 -43.046875 L 24.0625 -17.625 L 24.0625 0 L 21.78125 0 L 21.78125 -17.625 Z M 4.515625 -43.046875 "/></g></g><path style="fill:none;stroke-width:6;stroke-linecap:butt;stroke-linejoin:miter;stroke:#ff1818;stroke-opacity:1;stroke-miterlimit:4;" d="M 0.00251357 3.001029 L 53.533768 3.001029 " transform="matrix(0,0.75,-0.75,0,97.793741,22.416084)"/></g></svg>